<svg version="1.2" xmlns="http://www.w3.org/2000/svg" viewBox="0 0 135 30" width="135" height="30"><style>tspan{white-space:pre}.a{fill:#fff}.b{font-size: 23px;fill: #ffffff;font-weight: 400;font-family: "Coustard-Regular", "Coustard"}</style><path class="a" d="m-29.7 64q-0.1-0.5 0-1.2 1.8-0.1 2.5-0.3 0.8-0.2 1-0.8 0.2-0.6 0.2-1.9v-17.7q0-1.6-0.1-2.3-0.2-0.7-1-0.8-0.8-0.3-2.6-0.4-0.1-0.6 0-1.2 0.7 0 1.8 0 1.2 0 2.3 0 1.1 0 1.8 0 0.7 0 1.7 0 1.1 0 2.2 0 1.2 0 1.8 0 0.2 0.5 0 1.2-1.7 0.1-2.5 0.3-0.8 0.2-1 0.8-0.2 0.6-0.2 1.9v7.5h13.7v-7q0-1.6-0.2-2.3-0.2-0.7-0.9-0.8-0.8-0.3-2.6-0.4-0.1-0.6 0-1.2 0.7 0 1.8 0 1.1 0 2.2 0 1.1 0 1.8 0 0.8 0 1.9 0 1 0 2.1 0 1.1 0 1.8 0 0.1 0.5 0 1.2-1.7 0.1-2.5 0.3-0.8 0.2-1 0.8-0.2 0.6-0.2 1.9v17.7q0 1.5 0.2 2.3 0.2 0.7 0.9 0.9 0.8 0.2 2.6 0.3 0.1 0.7 0 1.2-0.8 0-1.9 0-1.1 0-2.2 0-1 0-1.7 0-0.7 0-1.8 0-1.1 0-2.1 0-1.1 0-1.8 0-0.2-0.5 0-1.2 1.7-0.1 2.5-0.3 0.7-0.2 0.9-0.8 0.2-0.6 0.2-1.9v-9h-13.7v8.5q0 1.6 0.2 2.3 0.2 0.7 1 0.9 0.8 0.2 2.5 0.3 0.1 0.7 0 1.2-0.7 0-1.8 0-1.1 0-2.2 0-1.1 0-1.8 0-0.7 0-1.8 0-1.1 0-2.2 0-1 0-1.8 0z"/><text style="transform:matrix(.724,0,0,.724,2,21.31)" ><tspan x="0" y="0" class="b">L</tspan><tspan  y="0" class="b">e</tspan><tspan  y="0" class="b">o</tspan><tspan  y="0" class="b">c</tspan><tspan  y="0" class="b">a</tspan><tspan  y="0" class="b">l</tspan><tspan  y="0" class="b">d</tspan><tspan  y="0" class="b">i</tspan><tspan  y="0" class="b">o</tspan><tspan  y="0" class="b"> </tspan><tspan  y="0" class="b">C</tspan><tspan  y="0" class="b">a</tspan><tspan  y="0" class="b">r</tspan><tspan  y="0" class="b">l</tspan><tspan  y="0" class="b">o</tspan><tspan  y="0" class="b">s</tspan><tspan  y="0" class="b">
</tspan></text></svg>